SplineFontDB: 3.2
FontName: OmeSwarlipi
FullName: Ome Swarlipi
FamilyName: Ome Swarlipi
Weight: Book
Copyright: Omenad 2007-2017
Version: 1.01 Oct 5, 2022
ItalicAngle: 0
UnderlinePosition: -292
UnderlineWidth: 150
Ascent: 1638
Descent: 410
InvalidEm: 0
sfntRevision: 0x00010000
LayerCount: 2
Layer: 0 1 "Back" 1
Layer: 1 1 "Fore" 0
PreferredKerning: 4
XUID: [1021 365 -898263510 8314264]
StyleMap: 0x0040
FSType: 8
OS2Version: 1
OS2_WeightWidthSlopeOnly: 0
OS2_UseTypoMetrics: 0
CreationTime: 1197493370
ModificationTime: 1664978969
PfmFamily: 49
TTFWeight: 400
TTFWidth: 5
LineGap: 0
VLineGap: 0
Panose: 2 0 0 0 0 0 0 0 0 0
OS2TypoAscent: 1284
OS2TypoAOffset: 0
OS2TypoDescent: 303
OS2TypoDOffset: 0
OS2TypoLinegap: 205
OS2WinAscent: 3643
OS2WinAOffset: 0
OS2WinDescent: 512
OS2WinDOffset: 0
HheadAscent: 3643
HheadAOffset: 0
HheadDescent: -512
HheadDOffset: 0
OS2SubXSize: 1434
OS2SubYSize: 1331
OS2SubXOff: 0
OS2SubYOff: 283
OS2SupXSize: 1434
OS2SupYSize: 1331
OS2SupXOff: 0
OS2SupYOff: 977
OS2StrikeYSize: 102
OS2StrikeYPos: 530
OS2Vendor: 'OMND'
OS2CodePages: 6000019f.dff70000
OS2UnicodeRanges: a00002af.500078fb.00000000.00000000
MarkAttachClasses: 1
DEI: 91125
ShortTable: maxp 16
  1
  0
  653
  75
  3
  0
  0
  0
  0
  0
  0
  0
  0
  0
  0
  0
EndShort
LangName: 1055 "" "" "Normal"
LangName: 1053 "" "" "Normal"
LangName: 2058 "" "" "Normal"
LangName: 1034 "" "" "Normal"
LangName: 3082 "" "" "Normal"
LangName: 1060 "" "" "Navadno"
LangName: 1051 "" "" "Norm+AOEA-lne"
LangName: 1049 "" "" "+BB4EMQRLBEcEPQRLBDkA"
LangName: 1046 "" "" "Normal"
LangName: 2070 "" "" "Normal"
LangName: 1045 "" "" "Normalny"
LangName: 1044 "" "" "Normal"
LangName: 1040 "" "" "Normale"
LangName: 1038 "" "" "Norm+AOEA-l"
LangName: 1032 "" "" "+A5oDsQO9A78DvQO5A7oDrAAA"
LangName: 1031 "" "" "Standard"
LangName: 1036 "" "" "Normal"
LangName: 3084 "" "" "Normal"
LangName: 1035 "" "" "Normaali"
LangName: 1043 "" "" "Standaard"
LangName: 1030 "" "" "normal"
LangName: 1029 "" "" "oby+AQ0A-ejn+AOkA"

StartChar: .notdef
Encoding: 65536 -1 0
GlifName: _notdef
Width: 1500
Flags: W
LayerCount: 2
Fore
SplineSet
256 0 m 1,0,-1
 256 1280 l 1,1,-1
 1280 1280 l 1,2,-1
 1280 0 l 1,3,-1
 256 0 l 1,0,-1
288 32 m 1,4,-1
 1248 32 l 1,5,-1
 1248 1248 l 1,6,-1
 288 1248 l 1,7,-1
 288 32 l 1,4,-1
EndSplineSet
Validated: 1
EndChar

StartChar: numbersign
Encoding: 35 35 6
GlifName: numbersign
Width: 1500
Flags: W
LayerCount: 2
Fore
SplineSet
521 1322 m 1,0,-1
 656 1322 l 1,1,-1
 674 1304 l 1,2,-1
 674 998 l 1,3,-1
 827 998 l 1,4,-1
 827 1304 l 1,5,-1
 845 1322 l 1,6,-1
 980 1322 l 1,7,-1
 998 1304 l 1,8,-1
 998 998 l 1,9,-1
 1304 998 l 1,10,-1
 1322 980 l 1,11,-1
 1322 845 l 1,12,-1
 1304 827 l 1,13,-1
 998 827 l 1,14,-1
 998 674 l 1,15,-1
 1304 674 l 1,16,-1
 1322 656 l 1,17,-1
 1322 521 l 1,18,-1
 1304 503 l 1,19,-1
 998 503 l 1,20,-1
 998 197 l 1,21,-1
 980 179 l 1,22,-1
 845 179 l 1,23,-1
 827 197 l 1,24,-1
 827 503 l 1,25,-1
 674 503 l 1,26,-1
 674 197 l 1,27,-1
 656 179 l 1,28,-1
 521 179 l 1,29,-1
 503 197 l 1,30,-1
 503 503 l 1,31,-1
 197 503 l 1,32,-1
 179 521 l 1,33,-1
 179 656 l 1,34,-1
 197 674 l 1,35,-1
 503 674 l 1,36,-1
 503 827 l 1,37,-1
 197 827 l 1,38,-1
 179 845 l 1,39,-1
 179 980 l 1,40,-1
 197 998 l 1,41,-1
 503 998 l 1,42,-1
 503 1304 l 1,43,-1
 521 1322 l 1,0,-1
674 827 m 1,44,-1
 674 674 l 1,45,-1
 827 674 l 1,46,-1
 827 827 l 1,47,-1
 674 827 l 1,44,-1
EndSplineSet
Validated: 1
EndChar

StartChar: quotesingle
Encoding: 39 39 10
GlifName: quotesingle
Width: 1500
Flags: W
LayerCount: 2
Fore
SplineSet
877 1016 m 0,0,1
 899 1016 899 1016 925 1014 c 128,-1,2
 951 1012 951 1012 970 1008 c 1,3,-1
 952 886 l 1,4,5
 932 889 932 889 910.5 891.5 c 128,-1,6
 889 894 889 894 870 894 c 0,7,8
 824 894 824 894 786 875.5 c 128,-1,9
 748 857 748 857 721 822.5 c 128,-1,10
 694 788 694 788 679 739.5 c 128,-1,11
 664 691 664 691 664 632 c 2,12,-1
 664 201 l 1,13,-1
 531 201 l 1,14,-1
 531 1001 l 1,15,-1
 639 1001 l 1,16,-1
 655 854 l 1,17,-1
 661 854 l 1,18,19
 679 886 679 886 700 915 c 128,-1,20
 721 944 721 944 746.5 966.5 c 128,-1,21
 772 989 772 989 804.5 1002.5 c 128,-1,22
 837 1016 837 1016 877 1016 c 0,0,1
EndSplineSet
Validated: 1
EndChar

StartChar: parenleft
Encoding: 40 40 11
GlifName: parenleft
Width: 750
Flags: W
LayerCount: 2
Fore
SplineSet
188 744 m 256,0,1
 188 843 188 843 202.5 939 c 128,-1,2
 217 1035 217 1035 246 1126 c 128,-1,3
 275 1217 275 1217 320 1300.5 c 128,-1,4
 365 1384 365 1384 427 1458 c 1,5,-1
 563 1458 l 1,6,7
 452 1305 452 1305 394.5 1122 c 128,-1,8
 337 939 337 939 337 745 c 0,9,10
 337 651 337 651 351.5 557.5 c 128,-1,11
 366 464 366 464 394.5 374.5 c 128,-1,12
 423 285 423 285 465 201 c 128,-1,13
 507 117 507 117 561 42 c 1,14,-1
 427 42 l 1,15,16
 365 113 365 113 320 195 c 128,-1,17
 275 277 275 277 246 366 c 128,-1,18
 217 455 217 455 202.5 550 c 128,-1,19
 188 645 188 645 188 744 c 256,0,1
EndSplineSet
Validated: 1
EndChar

StartChar: parenright
Encoding: 41 41 12
GlifName: parenright
Width: 750
Flags: W
LayerCount: 2
Fore
SplineSet
563 744 m 0,0,1
 563 646 563 646 549 551 c 128,-1,2
 535 456 535 456 505 367 c 128,-1,3
 475 278 475 278 430.5 196.5 c 128,-1,4
 386 115 386 115 324 44 c 1,5,-1
 190 44 l 1,6,7
 244 118 244 118 286 202 c 128,-1,8
 328 286 328 286 356.5 375 c 128,-1,9
 385 464 385 464 399 557.5 c 128,-1,10
 413 651 413 651 413 745 c 0,11,12
 413 938 413 938 356.5 1121 c 128,-1,13
 300 1304 300 1304 188 1457 c 1,14,-1
 324 1457 l 1,15,16
 386 1383 386 1383 430.5 1299.5 c 128,-1,17
 475 1216 475 1216 505 1125.5 c 128,-1,18
 535 1035 535 1035 549 939 c 128,-1,19
 563 843 563 843 563 744 c 0,0,1
EndSplineSet
Validated: 1
EndChar

StartChar: plus
Encoding: 43 43 14
GlifName: plus
Width: 1500
Flags: W
LayerCount: 2
Fore
SplineSet
1250 663 m 1,0,-1
 250 663 l 1,1,-1
 250 838 l 1,2,-1
 1250 838 l 1,3,-1
 1250 663 l 1,0,-1
838 1250 m 1,4,-1
 838 250 l 1,5,-1
 663 250 l 1,6,-1
 663 1250 l 1,7,-1
 838 1250 l 1,4,-1
EndSplineSet
Validated: 5
EndChar

StartChar: comma
Encoding: 44 44 15
GlifName: comma
Width: 1500
Flags: W
LayerCount: 2
Fore
SplineSet
907 262 m 1,0,-1
 923 238 l 1,1,2
 866 14 866 14 729 -289 c 1,3,-1
 577 -289 l 1,4,5
 653 34 653 34 688 262 c 1,6,-1
 907 262 l 1,0,-1
EndSplineSet
Validated: 1
EndChar

StartChar: hyphen
Encoding: 45 45 16
AltUni2: 0000ad.ffffffff.0
GlifName: hyphen
Width: 1500
Flags: W
LayerCount: 2
Fore
SplineSet
1250 663 m 1,0,-1
 250 663 l 1,1,-1
 250 838 l 1,2,-1
 1250 838 l 1,3,-1
 1250 663 l 1,0,-1
EndSplineSet
Validated: 1
EndChar

StartChar: zero
Encoding: 48 48 19
GlifName: zero
Width: 1500
Flags: W
LayerCount: 2
Fore
SplineSet
1098 751 m 0,0,1
 1098 619 1098 619 1079 514.5 c 128,-1,2
 1060 410 1060 410 1018 338 c 128,-1,3
 976 266 976 266 909.5 228 c 128,-1,4
 843 190 843 190 749 190 c 0,5,6
 661 190 661 190 595.5 228 c 128,-1,7
 530 266 530 266 487 338 c 128,-1,8
 444 410 444 410 423 514.5 c 128,-1,9
 402 619 402 619 402 751 c 256,10,11
 402 883 402 883 421 987.5 c 128,-1,12
 440 1092 440 1092 481.5 1163.5 c 128,-1,13
 523 1235 523 1235 589 1273.5 c 128,-1,14
 655 1312 655 1312 749 1312 c 0,15,16
 837 1312 837 1312 902.5 1274 c 128,-1,17
 968 1236 968 1236 1011.5 1164 c 128,-1,18
 1055 1092 1055 1092 1076.5 988 c 128,-1,19
 1098 884 1098 884 1098 751 c 0,0,1
540 751 m 256,20,21
 540 639 540 639 551 555.5 c 128,-1,22
 562 472 562 472 586.5 416.5 c 128,-1,23
 611 361 611 361 651 333 c 128,-1,24
 691 305 691 305 749 305 c 0,25,26
 806 305 806 305 846 332.5 c 128,-1,27
 886 360 886 360 912 415.5 c 128,-1,28
 938 471 938 471 949.5 554.5 c 128,-1,29
 961 638 961 638 961 751 c 0,30,31
 961 863 961 863 949.5 946.5 c 128,-1,32
 938 1030 938 1030 912 1085 c 128,-1,33
 886 1140 886 1140 846 1167.5 c 128,-1,34
 806 1195 806 1195 749 1195 c 0,35,36
 691 1195 691 1195 651 1167.5 c 128,-1,37
 611 1140 611 1140 586.5 1085 c 128,-1,38
 562 1030 562 1030 551 946.5 c 128,-1,39
 540 863 540 863 540 751 c 256,20,21
EndSplineSet
Validated: 1
EndChar

StartChar: one
Encoding: 49 49 20
GlifName: one
Width: 1500
Flags: W
LayerCount: 2
Fore
SplineSet
951 200 m 1,0,-1
 819 200 l 1,1,-1
 819 887 l 2,2,3
 819 919 819 919 819 956 c 128,-1,4
 819 993 819 993 820.5 1029.5 c 128,-1,5
 822 1066 822 1066 823 1099.5 c 128,-1,6
 824 1133 824 1133 825 1159 c 1,7,8
 812 1145 812 1145 802 1135 c 128,-1,9
 792 1125 792 1125 782 1116 c 128,-1,10
 772 1107 772 1107 760.5 1097 c 128,-1,11
 749 1087 749 1087 734 1074 c 2,12,-1
 622 982 l 1,13,-1
 550 1075 l 1,14,-1
 838 1300 l 1,15,-1
 951 1300 l 1,16,-1
 951 200 l 1,0,-1
EndSplineSet
Validated: 1
EndChar

StartChar: two
Encoding: 50 50 21
GlifName: two
Width: 1500
Flags: W
LayerCount: 2
Fore
SplineSet
1089 201 m 1,0,-1
 412 201 l 1,1,-1
 412 316 l 1,2,-1
 672 599 l 2,3,4
 727 659 727 659 771 708.5 c 128,-1,5
 815 758 815 758 846 805.5 c 128,-1,6
 877 853 877 853 893 901 c 128,-1,7
 909 949 909 949 909 1005 c 0,8,9
 909 1049 909 1049 896.5 1082.5 c 128,-1,10
 884 1116 884 1116 860.5 1139.5 c 128,-1,11
 837 1163 837 1163 805.5 1174.5 c 128,-1,12
 774 1186 774 1186 734 1186 c 0,13,14
 664 1186 664 1186 607 1157.5 c 128,-1,15
 550 1129 550 1129 499 1085 c 1,16,-1
 423 1173 l 1,17,18
 453 1200 453 1200 487 1223 c 128,-1,19
 521 1246 521 1246 560.5 1263 c 128,-1,20
 600 1280 600 1280 643.5 1290.5 c 128,-1,21
 687 1301 687 1301 736 1301 c 0,22,23
 807 1301 807 1301 864.5 1280.5 c 128,-1,24
 922 1260 922 1260 962 1223 c 128,-1,25
 1002 1186 1002 1186 1024 1132 c 128,-1,26
 1046 1078 1046 1078 1046 1010 c 0,27,28
 1046 947 1046 947 1026.5 890 c 128,-1,29
 1007 833 1007 833 972.5 778 c 128,-1,30
 938 723 938 723 890 667 c 128,-1,31
 842 611 842 611 786 551 c 2,32,-1
 578 330 l 1,33,-1
 578 324 l 1,34,-1
 1089 324 l 1,35,-1
 1089 201 l 1,0,-1
EndSplineSet
Validated: 1
EndChar

StartChar: three
Encoding: 51 51 22
GlifName: three
Width: 1500
Flags: W
LayerCount: 2
Fore
SplineSet
1056 1035 m 0,0,1
 1056 981 1056 981 1039 937.5 c 128,-1,2
 1022 894 1022 894 992 861.5 c 128,-1,3
 962 829 962 829 919.5 808 c 128,-1,4
 877 787 877 787 825 779 c 1,5,-1
 825 774 l 1,6,7
 954 758 954 758 1021.5 692 c 128,-1,8
 1089 626 1089 626 1089 520 c 0,9,10
 1089 449 1089 449 1065 390.5 c 128,-1,11
 1041 332 1041 332 993 289.5 c 128,-1,12
 945 247 945 247 871 224 c 128,-1,13
 797 201 797 201 696 201 c 0,14,15
 616 201 616 201 545.5 213 c 128,-1,16
 475 225 475 225 413 258 c 1,17,-1
 413 383 l 1,18,19
 477 349 477 349 551 330.5 c 128,-1,20
 625 312 625 312 693 312 c 256,21,22
 761 312 761 312 810 327 c 128,-1,23
 859 342 859 342 890.5 369 c 128,-1,24
 922 396 922 396 937 435.5 c 128,-1,25
 952 475 952 475 952 524 c 0,26,27
 952 574 952 574 932.5 609.5 c 128,-1,28
 913 645 913 645 877.5 668 c 128,-1,29
 842 691 842 691 790.5 702 c 128,-1,30
 739 713 739 713 673 713 c 2,31,-1
 576 713 l 1,32,-1
 576 823 l 1,33,-1
 673 823 l 2,34,35
 733 823 733 823 779 838 c 128,-1,36
 825 853 825 853 856 880 c 128,-1,37
 887 907 887 907 903 944 c 128,-1,38
 919 981 919 981 919 1026 c 0,39,40
 919 1064 919 1064 906 1094 c 128,-1,41
 893 1124 893 1124 869 1145 c 128,-1,42
 845 1166 845 1166 811 1177 c 128,-1,43
 777 1188 777 1188 736 1188 c 0,44,45
 658 1188 658 1188 598.5 1163.5 c 128,-1,46
 539 1139 539 1139 485 1099 c 1,47,-1
 417 1191 l 1,48,49
 445 1213 445 1213 479 1233 c 128,-1,50
 513 1253 513 1253 553.5 1268 c 128,-1,51
 594 1283 594 1283 639.5 1292 c 128,-1,52
 685 1301 685 1301 736 1301 c 0,53,54
 815 1301 815 1301 875 1281 c 128,-1,55
 935 1261 935 1261 975 1225.5 c 128,-1,56
 1015 1190 1015 1190 1035.5 1141.5 c 128,-1,57
 1056 1093 1056 1093 1056 1035 c 0,0,1
EndSplineSet
Validated: 1
EndChar

StartChar: four
Encoding: 52 52 23
GlifName: four
Width: 1500
Flags: W
LayerCount: 2
Fore
SplineSet
1148 445 m 1,0,-1
 989 445 l 1,1,-1
 989 200 l 1,2,-1
 857 200 l 1,3,-1
 857 445 l 1,4,-1
 352 445 l 1,5,-1
 352 564 l 1,6,-1
 848 1300 l 1,7,-1
 989 1300 l 1,8,-1
 989 570 l 1,9,-1
 1148 570 l 1,10,-1
 1148 445 l 1,0,-1
857 570 m 1,11,-1
 857 836 l 2,12,13
 857 878 857 878 858 924 c 128,-1,14
 859 970 859 970 860.5 1014 c 128,-1,15
 862 1058 862 1058 864 1096 c 128,-1,16
 866 1134 866 1134 867 1159 c 1,17,-1
 860 1159 l 1,18,19
 855 1144 855 1144 847 1126 c 128,-1,20
 839 1108 839 1108 829.5 1089.5 c 128,-1,21
 820 1071 820 1071 810.5 1054 c 128,-1,22
 801 1037 801 1037 793 1025 c 2,23,-1
 485 570 l 1,24,-1
 857 570 l 1,11,-1
EndSplineSet
Validated: 1
EndChar

StartChar: five
Encoding: 53 53 24
GlifName: five
Width: 1500
Flags: W
LayerCount: 2
Fore
SplineSet
731 883 m 0,0,1
 804 883 804 883 868 862.5 c 128,-1,2
 932 842 932 842 979 802 c 128,-1,3
 1026 762 1026 762 1053 702 c 128,-1,4
 1080 642 1080 642 1080 564 c 0,5,6
 1080 479 1080 479 1054.5 411.5 c 128,-1,7
 1029 344 1029 344 979 297 c 128,-1,8
 929 250 929 250 856 225 c 128,-1,9
 783 200 783 200 687 200 c 0,10,11
 649 200 649 200 612.5 203.5 c 128,-1,12
 576 207 576 207 542 214.5 c 128,-1,13
 508 222 508 222 477.5 233 c 128,-1,14
 447 244 447 244 422 259 c 1,15,-1
 422 387 l 1,16,17
 447 370 447 370 480 356.5 c 128,-1,18
 513 343 513 343 549.5 334 c 128,-1,19
 586 325 586 325 623 320 c 128,-1,20
 660 315 660 315 691 315 c 0,21,22
 750 315 750 315 796 329 c 128,-1,23
 842 343 842 343 874 372 c 128,-1,24
 906 401 906 401 923.5 445 c 128,-1,25
 941 489 941 489 941 549 c 0,26,27
 941 656 941 656 875 712 c 128,-1,28
 809 768 809 768 684 768 c 0,29,30
 664 768 664 768 640.5 766.5 c 128,-1,31
 617 765 617 765 593.5 762 c 128,-1,32
 570 759 570 759 549 755.5 c 128,-1,33
 528 752 528 752 512 749 c 1,34,-1
 445 791 l 1,35,-1
 486 1304 l 1,36,-1
 1000 1304 l 1,37,-1
 1000 1180 l 1,38,-1
 604 1180 l 1,39,-1
 575 868 l 1,40,41
 599 873 599 873 638 878 c 128,-1,42
 677 883 677 883 731 883 c 0,0,1
EndSplineSet
Validated: 1
EndChar

StartChar: six
Encoding: 54 54 25
GlifName: six
Width: 1500
Flags: W
LayerCount: 2
Fore
SplineSet
413 673 m 0,0,1
 413 749 413 749 420.5 825.5 c 128,-1,2
 428 902 428 902 447.5 971.5 c 128,-1,3
 467 1041 467 1041 501 1101 c 128,-1,4
 535 1161 535 1161 587 1205.5 c 128,-1,5
 639 1250 639 1250 711.5 1275.5 c 128,-1,6
 784 1301 784 1301 881 1301 c 0,7,8
 895 1301 895 1301 912 1300 c 128,-1,9
 929 1299 929 1299 946 1297 c 128,-1,10
 963 1295 963 1295 979 1292.5 c 128,-1,11
 995 1290 995 1290 1007 1287 c 1,12,-1
 1007 1173 l 1,13,14
 982 1182 982 1182 949.5 1186.5 c 128,-1,15
 917 1191 917 1191 886 1191 c 0,16,17
 820 1191 820 1191 769.5 1175 c 128,-1,18
 719 1159 719 1159 682.5 1130.5 c 128,-1,19
 646 1102 646 1102 621.5 1062.5 c 128,-1,20
 597 1023 597 1023 581.5 975 c 128,-1,21
 566 927 566 927 559 873 c 128,-1,22
 552 819 552 819 549 760 c 1,23,-1
 558 760 l 1,24,25
 573 787 573 787 594 810 c 128,-1,26
 615 833 615 833 642.5 849.5 c 128,-1,27
 670 866 670 866 705 875.5 c 128,-1,28
 740 885 740 885 783 885 c 0,29,30
 853 885 853 885 909.5 863.5 c 128,-1,31
 966 842 966 842 1005.5 800 c 128,-1,32
 1045 758 1045 758 1066.5 697.5 c 128,-1,33
 1088 637 1088 637 1088 560 c 0,34,35
 1088 476 1088 476 1065.5 409.5 c 128,-1,36
 1043 343 1043 343 1000.5 296.5 c 128,-1,37
 958 250 958 250 897.5 225.5 c 128,-1,38
 837 201 837 201 763 201 c 256,39,40
 689 201 689 201 625 229.5 c 128,-1,41
 561 258 561 258 514 316.5 c 128,-1,42
 467 375 467 375 440 463.5 c 128,-1,43
 413 552 413 552 413 673 c 0,0,1
761 312 m 0,44,45
 805 312 805 312 841.5 327 c 128,-1,46
 878 342 878 342 904 372.5 c 128,-1,47
 930 403 930 403 944.5 449.5 c 128,-1,48
 959 496 959 496 959 560 c 0,49,50
 959 611 959 611 947 651.5 c 128,-1,51
 935 692 935 692 910.5 720.5 c 128,-1,52
 886 749 886 749 850 764.5 c 128,-1,53
 814 780 814 780 766 780 c 0,54,55
 716 780 716 780 675.5 763 c 128,-1,56
 635 746 635 746 606.5 718.5 c 128,-1,57
 578 691 578 691 562 656 c 128,-1,58
 546 621 546 621 546 585 c 0,59,60
 546 536 546 536 560 487.5 c 128,-1,61
 574 439 574 439 600.5 400.5 c 128,-1,62
 627 362 627 362 667.5 337 c 128,-1,63
 708 312 708 312 761 312 c 0,44,45
EndSplineSet
Validated: 1
EndChar

StartChar: seven
Encoding: 55 55 26
GlifName: seven
Width: 1500
Flags: W
LayerCount: 2
Fore
SplineSet
541 200 m 1,0,-1
 964 1175 l 1,1,-1
 397 1175 l 1,2,-1
 397 1300 l 1,3,-1
 1104 1300 l 1,4,-1
 1104 1191 l 1,5,-1
 687 200 l 1,6,-1
 541 200 l 1,0,-1
EndSplineSet
Validated: 1
EndChar

StartChar: eight
Encoding: 56 56 27
GlifName: eight
Width: 1500
Flags: W
LayerCount: 2
Fore
SplineSet
751 1301 m 0,0,1
 812 1301 812 1301 866.5 1284.5 c 128,-1,2
 921 1268 921 1268 962 1236 c 128,-1,3
 1003 1204 1003 1204 1027.5 1156 c 128,-1,4
 1052 1108 1052 1108 1052 1043 c 0,5,6
 1052 994 1052 994 1037 954.5 c 128,-1,7
 1022 915 1022 915 996.5 883.5 c 128,-1,8
 971 852 971 852 936 826.5 c 128,-1,9
 901 801 901 801 860 781 c 1,10,11
 903 758 903 758 943.5 730.5 c 128,-1,12
 984 703 984 703 1015.5 668 c 128,-1,13
 1047 633 1047 633 1066.5 590 c 128,-1,14
 1086 547 1086 547 1086 494 c 0,15,16
 1086 426 1086 426 1061.5 371.5 c 128,-1,17
 1037 317 1037 317 993 279 c 128,-1,18
 949 241 949 241 887 221 c 128,-1,19
 825 201 825 201 751 201 c 0,20,21
 670 201 670 201 607.5 220.5 c 128,-1,22
 545 240 545 240 502.5 277 c 128,-1,23
 460 314 460 314 437.5 367.5 c 128,-1,24
 415 421 415 421 415 488 c 0,25,26
 415 543 415 543 431.5 586.5 c 128,-1,27
 448 630 448 630 475.5 665 c 128,-1,28
 503 700 503 700 541 727.5 c 128,-1,29
 579 755 579 755 622 775 c 1,30,31
 586 798 586 798 554.5 824.5 c 128,-1,32
 523 851 523 851 500 884 c 128,-1,33
 477 917 477 917 463.5 956.5 c 128,-1,34
 450 996 450 996 450 1045 c 0,35,36
 450 1108 450 1108 474.5 1156 c 128,-1,37
 499 1204 499 1204 540.5 1236 c 128,-1,38
 582 1268 582 1268 636.5 1284.5 c 128,-1,39
 691 1301 691 1301 751 1301 c 0,0,1
546 486 m 0,40,41
 546 448 546 448 557.5 415 c 128,-1,42
 569 382 569 382 594 359 c 128,-1,43
 619 336 619 336 657 323.5 c 128,-1,44
 695 311 695 311 748 311 c 0,45,46
 799 311 799 311 838 323.5 c 128,-1,47
 877 336 877 336 903.5 360 c 128,-1,48
 930 384 930 384 943 417.5 c 128,-1,49
 956 451 956 451 956 492 c 0,50,51
 956 530 956 530 941.5 561 c 128,-1,52
 927 592 927 592 900.5 618 c 128,-1,53
 874 644 874 644 836.5 667.5 c 128,-1,54
 799 691 799 691 753 714 c 2,55,-1
 731 724 l 1,56,57
 639 680 639 680 592.5 623.5 c 128,-1,58
 546 567 546 567 546 486 c 0,40,41
749 1189 m 0,59,60
 672 1189 672 1189 626 1150.5 c 128,-1,61
 580 1112 580 1112 580 1038 c 0,62,63
 580 996 580 996 593 966.5 c 128,-1,64
 606 937 606 937 628.5 913.5 c 128,-1,65
 651 890 651 890 683 871 c 128,-1,66
 715 852 715 852 752 835 c 1,67,68
 787 851 787 851 818 870 c 128,-1,69
 849 889 849 889 872 913 c 128,-1,70
 895 937 895 937 908.5 968 c 128,-1,71
 922 999 922 999 922 1038 c 0,72,73
 922 1112 922 1112 875.5 1150.5 c 128,-1,74
 829 1189 829 1189 749 1189 c 0,59,60
EndSplineSet
Validated: 1
EndChar

StartChar: nine
Encoding: 57 57 28
GlifName: nine
Width: 1500
Flags: W
LayerCount: 2
Fore
SplineSet
1088 828 m 0,0,1
 1088 752 1088 752 1080.5 675.5 c 128,-1,2
 1073 599 1073 599 1053.5 529.5 c 128,-1,3
 1034 460 1034 460 1000 399.5 c 128,-1,4
 966 339 966 339 914 295 c 128,-1,5
 862 251 862 251 789.5 226 c 128,-1,6
 717 201 717 201 619 201 c 0,7,8
 606 201 606 201 589 201.5 c 128,-1,9
 572 202 572 202 555 204 c 128,-1,10
 538 206 538 206 522 208 c 128,-1,11
 506 210 506 210 493 214 c 1,12,-1
 493 328 l 1,13,14
 519 318 519 318 551.5 314 c 128,-1,15
 584 310 584 310 615 310 c 0,16,17
 714 310 714 310 778 344 c 128,-1,18
 842 378 842 378 879 437 c 128,-1,19
 916 496 916 496 932 574.5 c 128,-1,20
 948 653 948 653 952 740 c 1,21,-1
 942 740 l 1,22,23
 927 714 927 714 906.5 691 c 128,-1,24
 886 668 886 668 858.5 651 c 128,-1,25
 831 634 831 634 795.5 624.5 c 128,-1,26
 760 615 760 615 717 615 c 0,27,28
 647 615 647 615 590.5 637 c 128,-1,29
 534 659 534 659 494.5 700.5 c 128,-1,30
 455 742 455 742 433.5 802.5 c 128,-1,31
 412 863 412 863 412 940 c 0,32,33
 412 1024 412 1024 435 1091 c 128,-1,34
 458 1158 458 1158 500.5 1204.5 c 128,-1,35
 543 1251 543 1251 603 1276 c 128,-1,36
 663 1301 663 1301 738 1301 c 0,37,38
 812 1301 812 1301 876 1272 c 128,-1,39
 940 1243 940 1243 987 1184.5 c 128,-1,40
 1034 1126 1034 1126 1061 1037 c 128,-1,41
 1088 948 1088 948 1088 828 c 0,0,1
740 1188 m 0,42,43
 696 1188 696 1188 659.5 1173.5 c 128,-1,44
 623 1159 623 1159 596.5 1128 c 128,-1,45
 570 1097 570 1097 556 1050.5 c 128,-1,46
 542 1004 542 1004 542 940 c 0,47,48
 542 889 542 889 554 848.5 c 128,-1,49
 566 808 566 808 590 779.5 c 128,-1,50
 614 751 614 751 650.5 735.5 c 128,-1,51
 687 720 687 720 735 720 c 0,52,53
 785 720 785 720 825.5 737.5 c 128,-1,54
 866 755 866 755 894.5 782 c 128,-1,55
 923 809 923 809 939 844.5 c 128,-1,56
 955 880 955 880 955 915 c 0,57,58
 955 964 955 964 941 1012.5 c 128,-1,59
 927 1061 927 1061 900.5 1100 c 128,-1,60
 874 1139 874 1139 833.5 1163.5 c 128,-1,61
 793 1188 793 1188 740 1188 c 0,42,43
EndSplineSet
Validated: 1
EndChar

StartChar: semicolon
Encoding: 59 59 30
AltUni2: 00037e.ffffffff.0
GlifName: semicolon
Width: 1500
Flags: W
LayerCount: 2
Fore
SplineSet
948 317 m 1,0,-1
 942 317 l 1,1,2
 927 293 927 293 906.5 271.5 c 128,-1,3
 886 250 886 250 859 234 c 128,-1,4
 832 218 832 218 798.5 209 c 128,-1,5
 765 200 765 200 723 200 c 0,6,7
 658 200 658 200 604.5 225 c 128,-1,8
 551 250 551 250 512.5 300 c 128,-1,9
 474 350 474 350 453 424 c 128,-1,10
 432 498 432 498 432 596 c 256,11,12
 432 694 432 694 453 768.5 c 128,-1,13
 474 843 474 843 512.5 893 c 128,-1,14
 551 943 551 943 604.5 968.5 c 128,-1,15
 658 994 658 994 723 994 c 0,16,17
 764 994 764 994 797.5 985 c 128,-1,18
 831 976 831 976 858 960.5 c 128,-1,19
 885 945 885 945 906 925 c 128,-1,20
 927 905 927 905 942 883 c 1,21,-1
 950 883 l 1,22,23
 948 906 948 906 946 928 c 0,24,25
 945 946 945 946 943.5 965.5 c 128,-1,26
 942 985 942 985 942 996 c 2,27,-1
 942 1300 l 1,28,-1
 1069 1300 l 1,29,-1
 1069 214 l 1,30,-1
 966 214 l 1,31,-1
 948 317 l 1,0,-1
747 305 m 0,32,33
 800 305 800 305 837 321.5 c 128,-1,34
 874 338 874 338 896.5 370.5 c 128,-1,35
 919 403 919 403 930 452.5 c 128,-1,36
 941 502 941 502 942 567 c 2,37,-1
 942 596 l 2,38,39
 942 666 942 666 932.5 721 c 128,-1,40
 923 776 923 776 900.5 813.5 c 128,-1,41
 878 851 878 851 840 870 c 128,-1,42
 802 889 802 889 746 889 c 0,43,44
 652 889 652 889 607.5 813 c 128,-1,45
 563 737 563 737 563 594 c 0,46,47
 563 448 563 448 607.5 376.5 c 128,-1,48
 652 305 652 305 747 305 c 0,32,33
EndSplineSet
Validated: 1
EndChar

StartChar: A
Encoding: 65 65 36
GlifName: A_
Width: 1500
Flags: W
LayerCount: 2
Fore
SplineSet
875 3500 m 1,0,-1
 875 -1000 l 1,1,-1
 625 -1000 l 1,2,-1
 625 3500 l 1,3,-1
 875 3500 l 1,0,-1
EndSplineSet
Validated: 1
EndChar

StartChar: D
Encoding: 68 68 39
GlifName: D_
Width: 1500
Flags: W
LayerCount: 2
Fore
SplineSet
473 1284 m 1,0,-1
 489 1284 l 1,1,-1
 564 1168 l 1,2,-1
 564 1160 l 1,3,4
 481 1092 481 1092 481 1052 c 1,5,6
 503 969 503 969 572 969 c 2,7,-1
 597 969 l 1,8,-1
 696 994 l 1,9,-1
 820 812 l 1,10,-1
 820 804 l 1,11,12
 688 683 688 683 688 547 c 1,13,14
 709 365 709 365 870 365 c 1,15,16
 976 372 976 372 1077 440 c 1,17,-1
 1093 440 l 1,18,19
 1168 330 1168 330 1168 307 c 1,20,21
 999 216 999 216 886 216 c 0,22,23
 622 216 622 216 531 473 c 1,24,-1
 514 589 l 1,25,26
 523 697 523 697 630 812 c 1,27,-1
 555 796 l 1,28,29
 400 796 400 796 332 1027 c 1,30,-1
 332 1044 l 2,31,32
 332 1178 332 1178 473 1284 c 1,0,-1
1375 -200 m 1,33,-1
 125 -200 l 1,34,-1
 125 -100 l 1,35,-1
 1375 -100 l 1,36,-1
 1375 -200 l 1,33,-1
EndSplineSet
Validated: 1
EndChar

StartChar: G
Encoding: 71 71 42
GlifName: G_
Width: 1500
Flags: W
LayerCount: 2
Fore
SplineSet
1151 601 m 0,0,1
 1151 422 1151 422 928 320 c 0,2,3
 895 303 895 303 837 303 c 2,4,-1
 415 303 l 1,5,-1
 398 320 l 1,6,-1
 398 444 l 1,7,-1
 415 460 l 1,8,-1
 828 460 l 2,9,10
 994 460 994 460 994 626 c 0,11,12
 994 787 994 787 406 1040 c 1,13,-1
 398 1048 l 1,14,-1
 398 1197 l 1,15,16
 1151 896 1151 896 1151 601 c 0,0,1
1375 -200 m 1,17,-1
 125 -200 l 1,18,-1
 125 -100 l 1,19,-1
 1375 -100 l 1,20,-1
 1375 -200 l 1,17,-1
EndSplineSet
Validated: 1
EndChar

StartChar: L
Encoding: 76 76 47
GlifName: L_
Width: 0
Flags: W
LayerCount: 2
Fore
SplineSet
-584 -287 m 0,0,1
 -556 -287 -556 -287 -529 -301.5 c 128,-1,2
 -502 -316 -502 -316 -487 -343 c 128,-1,3
 -472 -370 -472 -370 -472 -400 c 0,4,5
 -472 -429 -472 -429 -486.5 -455.5 c 128,-1,6
 -501 -482 -501 -482 -528 -497 c 128,-1,7
 -555 -512 -555 -512 -584 -512 c 256,8,9
 -613 -512 -613 -512 -640 -497 c 128,-1,10
 -667 -482 -667 -482 -682 -455.5 c 128,-1,11
 -697 -429 -697 -429 -697 -400 c 0,12,13
 -697 -370 -697 -370 -681.5 -343 c 128,-1,14
 -666 -316 -666 -316 -639.5 -301.5 c 128,-1,15
 -613 -287 -613 -287 -584 -287 c 0,0,1
-912 -287 m 0,16,17
 -884 -287 -884 -287 -857 -301.5 c 128,-1,18
 -830 -316 -830 -316 -815 -343 c 128,-1,19
 -800 -370 -800 -370 -800 -400 c 0,20,21
 -800 -429 -800 -429 -814.5 -455.5 c 128,-1,22
 -829 -482 -829 -482 -856 -497 c 128,-1,23
 -883 -512 -883 -512 -912 -512 c 256,24,25
 -941 -512 -941 -512 -968 -497 c 128,-1,26
 -995 -482 -995 -482 -1010 -455.5 c 128,-1,27
 -1025 -429 -1025 -429 -1025 -400 c 0,28,29
 -1025 -370 -1025 -370 -1009.5 -343 c 128,-1,30
 -994 -316 -994 -316 -967.5 -301.5 c 128,-1,31
 -941 -287 -941 -287 -912 -287 c 0,16,17
EndSplineSet
Validated: 1
EndChar

StartChar: M
Encoding: 77 77 48
GlifName: M_
Width: 1500
Flags: W
LayerCount: 2
Fore
SplineSet
415 1200 m 1,0,-1
 539 1200 l 1,1,-1
 555 1183 l 1,2,-1
 555 604 l 1,3,-1
 1135 604 l 1,4,-1
 1151 588 l 1,5,-1
 1151 463 l 1,6,-1
 1135 447 l 1,7,-1
 555 447 l 1,8,-1
 555 17 l 1,9,-1
 539 0 l 1,10,-1
 415 0 l 1,11,-1
 398 17 l 1,12,-1
 398 1183 l 1,13,-1
 415 1200 l 1,0,-1
768 1569 m 1,14,-1
 903 1569 l 1,15,-1
 921 1551 l 1,16,-1
 921 768 l 1,17,-1
 903 750 l 1,18,-1
 768 750 l 1,19,-1
 750 768 l 1,20,-1
 750 1551 l 1,21,-1
 768 1569 l 1,14,-1
EndSplineSet
Validated: 1
EndChar

StartChar: N
Encoding: 78 78 49
GlifName: N_
Width: 1500
Flags: W
LayerCount: 2
Fore
SplineSet
1151 1183 m 1,0,-1
 1151 17 l 1,1,-1
 1135 0 l 1,2,-1
 1010 0 l 1,3,-1
 994 17 l 1,4,-1
 994 447 l 1,5,-1
 415 447 l 1,6,-1
 398 463 l 1,7,-1
 398 588 l 1,8,-1
 415 604 l 1,9,-1
 994 604 l 1,10,-1
 994 1183 l 1,11,-1
 1010 1200 l 1,12,-1
 1135 1200 l 1,13,-1
 1151 1183 l 1,0,-1
1375 -200 m 1,14,-1
 125 -200 l 1,15,-1
 125 -100 l 1,16,-1
 1375 -100 l 1,17,-1
 1375 -200 l 1,14,-1
EndSplineSet
Validated: 1
EndChar

StartChar: R
Encoding: 82 82 53
GlifName: R_
Width: 1500
Flags: W
LayerCount: 2
Fore
SplineSet
307 1202 m 1,0,-1
 332 1202 l 2,1,2
 620 1202 620 1202 787 1003 c 1,3,4
 807 1003 807 1003 1193 606 c 1,5,-1
 1193 598 l 1,6,-1
 1052 598 l 1,7,8
 783 896 783 896 597 896 c 2,9,-1
 464 896 l 2,10,11
 438 896 438 896 307 1202 c 1,0,-1
1375 -200 m 1,12,-1
 125 -200 l 1,13,-1
 125 -100 l 1,14,-1
 1375 -100 l 1,15,-1
 1375 -200 l 1,12,-1
EndSplineSet
Validated: 1
EndChar

StartChar: U
Encoding: 85 85 56
GlifName: U_
Width: 0
Flags: W
LayerCount: 2
Fore
SplineSet
-585 1913 m 0,0,1
 -557 1913 -557 1913 -530 1898 c 128,-1,2
 -503 1883 -503 1883 -488 1856 c 128,-1,3
 -473 1829 -473 1829 -473 1800 c 256,4,5
 -473 1771 -473 1771 -487.5 1744 c 128,-1,6
 -502 1717 -502 1717 -529 1702.5 c 128,-1,7
 -556 1688 -556 1688 -585 1688 c 256,8,9
 -614 1688 -614 1688 -641 1702.5 c 128,-1,10
 -668 1717 -668 1717 -683 1744 c 128,-1,11
 -698 1771 -698 1771 -698 1800 c 256,12,13
 -698 1829 -698 1829 -682.5 1856 c 128,-1,14
 -667 1883 -667 1883 -640.5 1898 c 128,-1,15
 -614 1913 -614 1913 -585 1913 c 0,0,1
-913 1913 m 0,16,17
 -885 1913 -885 1913 -858 1898 c 128,-1,18
 -831 1883 -831 1883 -816 1856 c 128,-1,19
 -801 1829 -801 1829 -801 1800 c 256,20,21
 -801 1771 -801 1771 -815.5 1744 c 128,-1,22
 -830 1717 -830 1717 -857 1702.5 c 128,-1,23
 -884 1688 -884 1688 -913 1688 c 256,24,25
 -942 1688 -942 1688 -969 1702.5 c 128,-1,26
 -996 1717 -996 1717 -1011 1744 c 128,-1,27
 -1026 1771 -1026 1771 -1026 1800 c 256,28,29
 -1026 1829 -1026 1829 -1010.5 1856 c 128,-1,30
 -995 1883 -995 1883 -968.5 1898 c 128,-1,31
 -942 1913 -942 1913 -913 1913 c 0,16,17
EndSplineSet
Validated: 1
EndChar

StartChar: W
Encoding: 87 87 58
GlifName: W_
Width: 0
Flags: W
LayerCount: 2
Fore
SplineSet
-46 3643 m 1,0,-1
 1547 3643 l 1,1,-1
 1565 3625 l 1,2,-1
 1565 3328 l 1,3,-1
 1547 3310 l 1,4,-1
 917 3310 l 1,5,-1
 917 3166 l 1,6,-1
 899 3148 l 1,7,-1
 602 3148 l 1,8,-1
 584 3166 l 1,9,-1
 584 3310 l 1,10,-1
 -46 3310 l 1,11,-1
 -64 3328 l 1,12,-1
 -64 3625 l 1,13,-1
 -46 3643 l 1,0,-1
602 2995 m 1,14,-1
 899 2995 l 1,15,-1
 917 2977 l 1,16,-1
 917 2842 l 1,17,-1
 899 2824 l 1,18,-1
 602 2824 l 1,19,-1
 584 2842 l 1,20,-1
 584 2977 l 1,21,-1
 602 2995 l 1,14,-1
602 2671 m 1,22,-1
 899 2671 l 1,23,-1
 917 2653 l 1,24,-1
 917 2518 l 1,25,-1
 899 2500 l 1,26,-1
 602 2500 l 1,27,-1
 584 2518 l 1,28,-1
 584 2653 l 1,29,-1
 602 2671 l 1,22,-1
EndSplineSet
Validated: 1
EndChar

StartChar: bracketleft
Encoding: 91 91 62
GlifName: bracketleft
Width: 1500
Flags: W
LayerCount: 2
Fore
SplineSet
1156 761 m 0,0,1
 1156 621 1156 621 1120 516 c 128,-1,2
 1084 411 1084 411 1015.5 341 c 128,-1,3
 947 271 947 271 847.5 235.5 c 128,-1,4
 748 200 748 200 621 200 c 2,5,-1
 346 200 l 1,6,-1
 346 1300 l 1,7,-1
 652 1300 l 2,8,9
 767 1300 767 1300 860.5 1265.5 c 128,-1,10
 954 1231 954 1231 1019.5 1163 c 128,-1,11
 1085 1095 1085 1095 1120.5 994 c 128,-1,12
 1156 893 1156 893 1156 761 c 0,0,1
1008 756 m 0,13,14
 1008 866 1008 866 983 946 c 128,-1,15
 958 1026 958 1026 910.5 1078 c 128,-1,16
 863 1130 863 1130 794 1155 c 128,-1,17
 725 1180 725 1180 637 1180 c 2,18,-1
 486 1180 l 1,19,-1
 486 320 l 1,20,-1
 608 320 l 2,21,22
 806 320 806 320 907 430 c 128,-1,23
 1008 540 1008 540 1008 756 c 0,13,14
EndSplineSet
Validated: 1
EndChar

StartChar: backslash
Encoding: 92 92 63
GlifName: backslash
Width: 3000
Flags: W
LayerCount: 2
Fore
SplineSet
1353 870 m 1,0,1
 1353 1036 1353 1036 1302.5 1133 c 128,-1,2
 1252 1230 1252 1230 1157 1230 c 0,3,4
 1081 1230 1081 1230 1012 1207 c 1,5,-1
 993 1268 l 1,6,7
 1072 1300 1072 1300 1177 1300 c 0,8,9
 1329 1300 1329 1300 1411.5 1181.5 c 128,-1,10
 1494 1063 1494 1063 1494 840 c 0,11,12
 1494 542 1494 542 1381.5 371 c 128,-1,13
 1269 200 1269 200 1074 200 c 0,14,15
 936 200 936 200 861 276 c 128,-1,16
 786 352 786 352 786 491 c 0,17,18
 786 674 786 674 900.5 806 c 128,-1,19
 1015 938 1015 938 1188 938 c 0,20,21
 1302 938 1302 938 1353 870 c 1,0,1
1351 750 m 1,22,23
 1301 864 1301 864 1181 864 c 0,24,25
 1076 864 1076 864 1003.5 756 c 128,-1,26
 931 648 931 648 931 475 c 0,27,28
 931 269 931 269 1095 269 c 0,29,30
 1203 269 1203 269 1272.5 402.5 c 128,-1,31
 1342 536 1342 536 1351 750 c 1,22,23
2091 798 m 1,32,33
 2091 917 2091 917 2031 917 c 0,34,35
 1962 917 1962 917 1884.5 780.5 c 128,-1,36
 1807 644 1807 644 1769 472 c 2,37,-1
 1713 200 l 1,38,-1
 1574 200 l 1,39,-1
 1699 800 l 2,40,41
 1708 842 1708 842 1708 867 c 0,42,43
 1708 938 1708 938 1589 938 c 2,44,-1
 1577 938 l 1,45,-1
 1591 1000 l 1,46,-1
 1855 1000 l 1,47,-1
 1823 785 l 1,48,-1
 1839 785 l 1,49,50
 1899 919 1899 919 1957 967 c 128,-1,51
 2015 1015 2015 1015 2092 1015 c 0,52,53
 2215 1015 2215 1015 2215 912 c 0,54,55
 2215 798 2215 798 2091 798 c 1,32,33
EndSplineSet
Validated: 1
EndChar

StartChar: bracketright
Encoding: 93 93 64
GlifName: bracketright
Width: 1500
Flags: W
LayerCount: 2
Fore
SplineSet
520 654 m 1,0,-1
 520 200 l 1,1,-1
 380 200 l 1,2,-1
 380 1300 l 1,3,-1
 648 1300 l 2,4,5
 848 1300 848 1300 943.5 1222.5 c 128,-1,6
 1039 1145 1039 1145 1039 988 c 0,7,8
 1039 922 1039 922 1020.5 873 c 128,-1,9
 1002 824 1002 824 971.5 789.5 c 128,-1,10
 941 755 941 755 902 731.5 c 128,-1,11
 863 708 863 708 822 693 c 1,12,-1
 1121 200 l 1,13,-1
 956 200 l 1,14,-1
 692 654 l 1,15,-1
 520 654 l 1,0,-1
520 773 m 1,16,-1
 643 773 l 2,17,18
 711 773 711 773 758.5 786.5 c 128,-1,19
 806 800 806 800 836.5 826 c 128,-1,20
 867 852 867 852 881 890.5 c 128,-1,21
 895 929 895 929 895 981 c 0,22,23
 895 1035 895 1035 879.5 1072.5 c 128,-1,24
 864 1110 864 1110 832.5 1134.5 c 128,-1,25
 801 1159 801 1159 753.5 1169.5 c 128,-1,26
 706 1180 706 1180 640 1180 c 2,27,-1
 520 1180 l 1,28,-1
 520 773 l 1,16,-1
EndSplineSet
Validated: 1
EndChar

StartChar: underscore
Encoding: 95 95 66
GlifName: underscore
Width: 1500
Flags: W
LayerCount: 2
Fore
SplineSet
1500 663 m 1,0,-1
 0 663 l 1,1,-1
 0 838 l 1,2,-1
 1500 838 l 1,3,-1
 1500 663 l 1,0,-1
EndSplineSet
Validated: 1
EndChar

StartChar: a
Encoding: 97 97 68
GlifName: a
Width: 1500
Flags: W
LayerCount: 2
Fore
SplineSet
838 -250 m 1,0,-1
 663 -250 l 1,1,-1
 663 1750 l 1,2,-1
 838 1750 l 1,3,-1
 838 -250 l 1,0,-1
EndSplineSet
Validated: 1
EndChar

StartChar: d
Encoding: 100 100 71
GlifName: d
Width: 1500
Flags: W
LayerCount: 2
Fore
SplineSet
473 1284 m 1,0,-1
 489 1284 l 1,1,-1
 564 1168 l 1,2,-1
 564 1160 l 1,3,4
 481 1092 481 1092 481 1052 c 1,5,6
 503 969 503 969 572 969 c 2,7,-1
 597 969 l 1,8,-1
 696 994 l 1,9,-1
 820 812 l 1,10,-1
 820 804 l 1,11,12
 688 683 688 683 688 547 c 1,13,14
 709 365 709 365 870 365 c 1,15,16
 976 372 976 372 1077 440 c 1,17,-1
 1093 440 l 1,18,19
 1168 330 1168 330 1168 307 c 1,20,21
 999 216 999 216 886 216 c 0,22,23
 622 216 622 216 531 473 c 1,24,-1
 514 589 l 1,25,26
 523 697 523 697 630 812 c 1,27,-1
 555 796 l 1,28,29
 400 796 400 796 332 1027 c 1,30,-1
 332 1044 l 2,31,32
 332 1178 332 1178 473 1284 c 1,0,-1
EndSplineSet
Validated: 1
EndChar

StartChar: e
Encoding: 101 101 72
GlifName: e
Width: 0
Flags: W
LayerCount: 2
Fore
SplineSet
28 3643 m 0,0,1
 651 3643 651 3643 1108 3094 c 1,2,3
 1306 2811 1306 2811 1306 2509 c 1,4,-1
 1297 2500 l 1,5,-1
 1153 2500 l 2,6,7
 1137 2500 1137 2500 1108 2761 c 1,8,9
 1003 3063 1003 3063 775 3175 c 1,10,11
 486 3310 486 3310 10 3310 c 1,12,-1
 1 3319 l 1,13,-1
 1 3625 l 2,14,15
 1 3643 1 3643 28 3643 c 0,0,1
EndSplineSet
Validated: 1
EndChar

StartChar: g
Encoding: 103 103 74
GlifName: g
Width: 1500
Flags: W
LayerCount: 2
Fore
SplineSet
1151 601 m 0,0,1
 1151 422 1151 422 928 320 c 0,2,3
 895 303 895 303 837 303 c 2,4,-1
 415 303 l 1,5,-1
 398 320 l 1,6,-1
 398 444 l 1,7,-1
 415 460 l 1,8,-1
 828 460 l 2,9,10
 994 460 994 460 994 626 c 0,11,12
 994 787 994 787 406 1040 c 1,13,-1
 398 1048 l 1,14,-1
 398 1197 l 1,15,16
 1151 896 1151 896 1151 601 c 0,0,1
EndSplineSet
Validated: 1
EndChar

StartChar: l
Encoding: 108 108 79
GlifName: l
Width: 0
Flags: W
LayerCount: 2
Fore
SplineSet
-749 -287 m 0,0,1
 -721 -287 -721 -287 -694 -301.5 c 128,-1,2
 -667 -316 -667 -316 -652 -343 c 128,-1,3
 -637 -370 -637 -370 -637 -400 c 0,4,5
 -637 -429 -637 -429 -651.5 -455.5 c 128,-1,6
 -666 -482 -666 -482 -693 -497 c 128,-1,7
 -720 -512 -720 -512 -749 -512 c 256,8,9
 -778 -512 -778 -512 -805 -497 c 128,-1,10
 -832 -482 -832 -482 -847 -455.5 c 128,-1,11
 -862 -429 -862 -429 -862 -400 c 0,12,13
 -862 -370 -862 -370 -846.5 -343 c 128,-1,14
 -831 -316 -831 -316 -804.5 -301.5 c 128,-1,15
 -778 -287 -778 -287 -749 -287 c 0,0,1
EndSplineSet
Validated: 1
EndChar

StartChar: m
Encoding: 109 109 80
GlifName: m
Width: 1500
Flags: W
LayerCount: 2
Fore
SplineSet
415 1200 m 1,0,-1
 539 1200 l 1,1,-1
 555 1183 l 1,2,-1
 555 604 l 1,3,-1
 1135 604 l 1,4,-1
 1151 588 l 1,5,-1
 1151 463 l 1,6,-1
 1135 447 l 1,7,-1
 555 447 l 1,8,-1
 555 17 l 1,9,-1
 539 0 l 1,10,-1
 415 0 l 1,11,-1
 398 17 l 1,12,-1
 398 1183 l 1,13,-1
 415 1200 l 1,0,-1
EndSplineSet
Validated: 1
EndChar

StartChar: n
Encoding: 110 110 81
GlifName: n
Width: 1500
Flags: W
LayerCount: 2
Fore
SplineSet
1151 1183 m 1,0,-1
 1151 17 l 1,1,-1
 1135 0 l 1,2,-1
 1010 0 l 1,3,-1
 994 17 l 1,4,-1
 994 447 l 1,5,-1
 415 447 l 1,6,-1
 398 463 l 1,7,-1
 398 588 l 1,8,-1
 415 604 l 1,9,-1
 994 604 l 1,10,-1
 994 1183 l 1,11,-1
 1010 1200 l 1,12,-1
 1135 1200 l 1,13,-1
 1151 1183 l 1,0,-1
EndSplineSet
Validated: 1
EndChar

StartChar: p
Encoding: 112 112 83
GlifName: p
Width: 1500
Flags: W
LayerCount: 2
Fore
SplineSet
1151 1197 m 1,1,-1
 1151 1048 l 1,2,-1
 1143 1040 l 1,3,4
 555 787 555 787 555 626 c 0,5,6
 555 460 555 460 721 460 c 2,7,-1
 1135 460 l 1,8,-1
 1151 444 l 1,9,-1
 1151 320 l 1,10,-1
 1135 303 l 1,11,-1
 712 303 l 2,12,13
 654 303 654 303 621 320 c 0,14,15
 398 422 398 422 398 601 c 0,16,0
 398 896 398 896 1151 1197 c 1,1,-1
EndSplineSet
Validated: 1
EndChar

StartChar: q
Encoding: 113 113 84
GlifName: q
Width: 0
Flags: W
LayerCount: 2
Fore
SplineSet
1501 3625 m 2,1,-1
 1501 3319 l 1,2,-1
 1492 3310 l 1,3,4
 1016 3310 1016 3310 727 3175 c 1,5,6
 499 3063 499 3063 394 2761 c 1,7,8
 365 2500 365 2500 349 2500 c 2,9,-1
 205 2500 l 1,10,-1
 196 2509 l 1,11,12
 196 2811 196 2811 394 3094 c 1,13,14
 851 3643 851 3643 1474 3643 c 0,15,0
 1501 3643 1501 3643 1501 3625 c 2,1,-1
EndSplineSet
Validated: 1
EndChar

StartChar: r
Encoding: 114 114 85
GlifName: r
Width: 1500
Flags: W
LayerCount: 2
Fore
SplineSet
307 1202 m 1,0,-1
 332 1202 l 2,1,2
 620 1202 620 1202 787 1003 c 1,3,4
 807 1003 807 1003 1193 606 c 1,5,-1
 1193 598 l 1,6,-1
 1052 598 l 1,7,8
 783 896 783 896 597 896 c 2,9,-1
 464 896 l 2,10,11
 438 896 438 896 307 1202 c 1,0,-1
EndSplineSet
Validated: 1
EndChar

StartChar: s
Encoding: 115 115 86
GlifName: s
Width: 1500
Flags: W
LayerCount: 2
Fore
SplineSet
316 837 m 1,0,1
 427 1193 427 1193 746 1193 c 1,2,-1
 837 1184 l 1,3,4
 1193 1073 1193 1073 1193 754 c 1,5,-1
 1184 663 l 1,6,7
 1073 307 1073 307 754 307 c 1,8,-1
 663 316 l 1,9,10
 307 427 307 427 307 746 c 1,11,-1
 316 837 l 1,0,1
589 1325 m 0,13,14
 150 1162 150 1162 150 754 c 0,15,16
 150 649 150 649 175 589 c 0,17,18
 338 150 338 150 746 150 c 0,19,20
 851 150 851 150 911 175 c 0,21,22
 1350 338 1350 338 1350 746 c 0,23,24
 1350 851 1350 851 1325 911 c 0,25,26
 1162 1350 1162 1350 754 1350 c 0,27,12
 649 1350 649 1350 589 1325 c 0,13,14
EndSplineSet
Validated: 9
EndChar

StartChar: u
Encoding: 117 117 88
GlifName: u
Width: 0
Flags: W
LayerCount: 2
Fore
SplineSet
-749 1913 m 0,0,1
 -721 1913 -721 1913 -694 1898 c 128,-1,2
 -667 1883 -667 1883 -652 1856 c 128,-1,3
 -637 1829 -637 1829 -637 1800 c 256,4,5
 -637 1771 -637 1771 -651.5 1744 c 128,-1,6
 -666 1717 -666 1717 -693 1702.5 c 128,-1,7
 -720 1688 -720 1688 -749 1688 c 256,8,9
 -778 1688 -778 1688 -805 1702.5 c 128,-1,10
 -832 1717 -832 1717 -847 1744 c 128,-1,11
 -862 1771 -862 1771 -862 1800 c 256,12,13
 -862 1829 -862 1829 -846.5 1856 c 128,-1,14
 -831 1883 -831 1883 -804.5 1898 c 128,-1,15
 -778 1913 -778 1913 -749 1913 c 0,0,1
EndSplineSet
Validated: 1
EndChar

StartChar: v
Encoding: 118 118 89
GlifName: v
Width: 0
Flags: W
LayerCount: 2
Fore
SplineSet
-1231 2378 m 0,0,1
 -1199 2378 -1199 2378 -943 2135 c 1,2,-1
 -889 2135 l 1,3,-1
 -619 2369 l 1,4,-1
 -583 2378 l 1,5,6
 -551 2378 -551 2378 -295 2135 c 1,7,-1
 -241 2135 l 1,8,-1
 -106 2243 l 1,9,-1
 -97 2243 l 1,10,-1
 -97 2135 l 1,11,12
 -210 2000 -210 2000 -268 2000 c 0,13,14
 -299 2000 -299 2000 -556 2243 c 1,15,-1
 -610 2243 l 1,16,-1
 -880 2009 l 1,17,-1
 -916 2000 l 1,18,19
 -947 2000 -947 2000 -1204 2243 c 1,20,-1
 -1258 2243 l 1,21,-1
 -1393 2135 l 1,22,-1
 -1402 2135 l 1,23,-1
 -1402 2243 l 1,24,25
 -1288 2378 -1288 2378 -1231 2378 c 0,0,1
EndSplineSet
Validated: 1
EndChar

StartChar: w
Encoding: 119 119 90
GlifName: w
Width: 0
Flags: W
LayerCount: 2
Fore
SplineSet
-43 3643 m 1,0,-1
 1550 3643 l 1,1,-1
 1568 3625 l 1,2,-1
 1568 3328 l 1,3,-1
 1550 3310 l 1,4,-1
 -43 3310 l 1,5,-1
 -61 3328 l 1,6,-1
 -61 3625 l 1,7,-1
 -43 3643 l 1,0,-1
EndSplineSet
Validated: 1
EndChar

StartChar: x
Encoding: 120 120 91
GlifName: x
Width: 1500
Flags: W
LayerCount: 2
Fore
SplineSet
1166 1042 m 1,0,-1
 459 335 l 1,1,-1
 335 458 l 1,2,-1
 1042 1165 l 1,3,-1
 1166 1042 l 1,0,-1
459 1165 m 1,4,-1
 1166 458 l 1,5,-1
 1042 335 l 1,6,-1
 335 1042 l 1,7,-1
 459 1165 l 1,4,-1
EndSplineSet
Validated: 5
EndChar

StartChar: endash
Encoding: 8211 8211 177
GlifName: endash
Width: 1500
Flags: W
LayerCount: 2
Fore
SplineSet
1250 663 m 1,0,-1
 250 663 l 1,1,-1
 250 838 l 1,2,-1
 1250 838 l 1,3,-1
 1250 663 l 1,0,-1
EndSplineSet
Validated: 1
EndChar

StartChar: quoteright
Encoding: 8217 8217 182
GlifName: quoteright
Width: 1500
Flags: W
LayerCount: 2
Fore
SplineSet
877 1016 m 0,0,1
 899 1016 899 1016 925 1014 c 128,-1,2
 951 1012 951 1012 970 1008 c 1,3,-1
 952 886 l 1,4,5
 932 889 932 889 910.5 891.5 c 128,-1,6
 889 894 889 894 870 894 c 0,7,8
 824 894 824 894 786 875.5 c 128,-1,9
 748 857 748 857 721 822.5 c 128,-1,10
 694 788 694 788 679 739.5 c 128,-1,11
 664 691 664 691 664 632 c 2,12,-1
 664 201 l 1,13,-1
 531 201 l 1,14,-1
 531 1001 l 1,15,-1
 639 1001 l 1,16,-1
 655 854 l 1,17,-1
 661 854 l 1,18,19
 679 886 679 886 700 915 c 128,-1,20
 721 944 721 944 746.5 966.5 c 128,-1,21
 772 989 772 989 804.5 1002.5 c 128,-1,22
 837 1016 837 1016 877 1016 c 0,0,1
EndSplineSet
Validated: 1
EndChar

